<svg width="295" height="579" viewBox="0 0 295 579" fill="none" xmlns="http://www.w3.org/2000/svg">
<g id="mid">
<g id="tab-navigation">
<g id="navigation">
<g id="stocks">
<path id="stocks_2" d="M198.646 554.12H196.179C195.809 554.12 195.562 554.367 195.562 554.737V562.55C195.562 562.92 195.809 563.167 196.179 563.167H198.646C199.016 563.167 199.263 562.92 199.263 562.55V554.737C199.263 554.367 199.016 554.12 198.646 554.12Z" fill="#A7AEB5"/>
<path id="stocks_3" d="M193.821 556.382H191.354C190.984 556.382 190.737 556.629 190.737 556.999V562.55C190.737 562.92 190.984 563.167 191.354 563.167H193.821C194.192 563.167 194.438 562.92 194.438 562.55V556.999C194.438 556.629 194.192 556.382 193.821 556.382Z" fill="#A7AEB5"/>
<path id="stocks_4" d="M203.623 551.859H201.156C200.786 551.859 200.539 552.105 200.539 552.475V562.55C200.539 562.92 200.786 563.167 201.156 563.167H203.623C203.993 563.167 204.24 562.92 204.24 562.55V552.475C204.24 552.105 203.993 551.859 203.623 551.859Z" fill="#A7AEB5"/>
</g>
<g id="credit-card">
<path id="Rectangle 4" d="M134.195 554.874C134.195 553.217 135.538 551.859 137.195 551.859H150.796C152.453 551.859 153.796 553.217 153.796 554.874V554.874H134.195V554.874Z" fill="#A7AEB5"/>
<path id="Rectangle 5" d="M134.195 556.382H153.796V560.167C153.796 561.824 152.453 563.167 150.796 563.167H137.195C135.538 563.167 134.195 561.824 134.195 560.167V556.382Z" fill="#A7AEB5"/>
</g>
<g id="transfer">
<path id="Vector" d="M97.0613 555.115C97.1155 554.984 97.1155 554.837 97.0613 554.706C97.0351 554.641 96.9965 554.581 96.9475 554.531L94.6711 552.255C94.5705 552.154 94.434 552.098 94.2917 552.098C94.1494 552.098 94.013 552.154 93.9123 552.255C93.8117 552.355 93.7552 552.492 93.7552 552.634C93.7552 552.777 93.8117 552.913 93.9123 553.014L95.2744 554.376L87.4627 554.372C87.3919 554.372 87.3217 554.385 87.2562 554.412C87.1907 554.439 87.1312 554.479 87.0811 554.529C87.031 554.579 86.9913 554.639 86.9644 554.704C86.9374 554.77 86.9237 554.84 86.9239 554.911C86.9237 554.981 86.9374 555.052 86.9644 555.117C86.9913 555.183 87.031 555.242 87.0811 555.292C87.1312 555.342 87.1907 555.382 87.2562 555.409C87.3217 555.436 87.3919 555.45 87.4627 555.449L95.2744 555.446L93.9123 556.808C93.8117 556.908 93.7552 557.045 93.7552 557.187C93.7552 557.329 93.8117 557.466 93.9123 557.566C94.013 557.667 94.1494 557.724 94.2917 557.724C94.434 557.724 94.5705 557.667 94.6711 557.566L96.9475 555.29C96.9965 555.24 97.0351 555.181 97.0613 555.115Z" fill="#A7AEB5" stroke="#A7AEB5"/>
<path id="Vector_2" d="M77.9182 559.983C77.864 560.115 77.864 560.262 77.9182 560.393C77.9444 560.458 77.983 560.517 78.032 560.568L80.3084 562.844C80.409 562.945 80.5455 563.001 80.6878 563.001C80.8301 563.001 80.9665 562.945 81.0671 562.844C81.1678 562.743 81.2243 562.607 81.2243 562.465C81.2243 562.322 81.1678 562.186 81.0671 562.085L79.7051 560.723L87.5168 560.727C87.5876 560.727 87.6578 560.714 87.7233 560.687C87.7888 560.66 87.8483 560.62 87.8984 560.57C87.9485 560.52 87.9882 560.46 88.0151 560.395C88.0421 560.329 88.0558 560.259 88.0555 560.188C88.0558 560.117 88.0421 560.047 88.0151 559.982C87.9882 559.916 87.9485 559.857 87.8984 559.807C87.8483 559.757 87.7888 559.717 87.7233 559.69C87.6578 559.663 87.5876 559.649 87.5168 559.65L79.7051 559.653L81.0671 558.291C81.1678 558.191 81.2243 558.054 81.2243 557.912C81.2243 557.77 81.1678 557.633 81.0671 557.533C80.9665 557.432 80.8301 557.375 80.6878 557.375C80.5455 557.375 80.409 557.432 80.3084 557.533L78.032 559.809C77.983 559.859 77.9444 559.918 77.9182 559.983Z" fill="#A7AEB5" stroke="#A7AEB5"/>
</g>
</g>
</g>
<g id="card">
<g id="Manage your expenses in one place" filter="url(#filter0_d_14_1962)">
<path d="M167.601 460.635H169.049V453.542H169.073L171.666 460.635H172.728L175.321 453.542H175.345V460.635H176.793V452.095H174.501L172.197 458.078L169.917 452.095H167.601V460.635Z" fill="white"/>
<path d="M182.218 460.635H183.521V457.306C183.521 456.485 183.521 454.7 181.048 454.7C180.131 454.7 179.227 454.978 178.587 455.629L179.347 456.389C179.733 456.027 180.288 455.786 180.891 455.786C181.663 455.786 182.218 456.16 182.218 456.871V457.028H181.856C180.409 457.028 178.214 457.161 178.214 459.043C178.214 460.189 179.251 460.78 180.324 460.78C181.096 460.78 181.772 460.49 182.182 459.839H182.218V460.635ZM182.134 458.367C182.134 459.175 181.663 459.694 180.674 459.694C180.204 459.694 179.661 459.465 179.661 458.934C179.661 458.102 181.036 458.042 181.832 458.042H182.134V458.367Z" fill="white"/>
<path d="M185.078 460.635H186.526V457.475C186.526 456.703 186.9 456.003 187.853 456.003C188.866 456.003 188.914 457.064 188.914 457.704V460.635H190.362V456.98C190.362 455.798 189.807 454.7 188.251 454.7C187.286 454.7 186.743 455.195 186.478 455.774H186.454V454.845H185.078V460.635Z" fill="white"/>
<path d="M195.624 460.635H196.926V457.306C196.926 456.485 196.926 454.7 194.454 454.7C193.537 454.7 192.632 454.978 191.993 455.629L192.753 456.389C193.139 456.027 193.694 455.786 194.297 455.786C195.069 455.786 195.624 456.16 195.624 456.871V457.028H195.262C193.814 457.028 191.619 457.161 191.619 459.043C191.619 460.189 192.656 460.78 193.73 460.78C194.502 460.78 195.177 460.49 195.587 459.839H195.624V460.635ZM195.539 458.367C195.539 459.175 195.069 459.694 194.08 459.694C193.609 459.694 193.066 459.465 193.066 458.934C193.066 458.102 194.442 458.042 195.238 458.042H195.539V458.367Z" fill="white"/>
<path d="M203.068 454.845V455.713H203.043C202.621 455.014 201.861 454.7 201.053 454.7C199.268 454.7 198.194 456.027 198.194 457.74C198.194 459.38 199.34 460.707 201.077 460.707C201.801 460.707 202.549 460.43 202.971 459.863H202.995V460.285C202.995 461.431 202.561 462.227 201.162 462.227C200.353 462.227 199.75 461.926 199.171 461.395L198.303 462.577C199.123 463.301 200.1 463.53 201.174 463.53C203.429 463.53 204.443 462.203 204.443 460.116V454.845H203.068ZM201.355 456.003C202.404 456.003 203.068 456.703 203.068 457.704C203.068 458.669 202.416 459.405 201.343 459.405C200.366 459.405 199.642 458.645 199.642 457.728C199.642 456.703 200.341 456.003 201.355 456.003Z" fill="white"/>
<path d="M211.655 458.247V457.849C211.655 455.834 210.557 454.7 208.941 454.7C207.191 454.7 205.792 455.919 205.792 457.74C205.792 459.561 207.191 460.78 208.941 460.78C209.857 460.78 210.714 460.454 211.389 459.622L210.352 458.838C209.99 459.284 209.52 459.622 208.796 459.622C207.988 459.622 207.336 459.103 207.24 458.247H211.655ZM207.24 457.161C207.348 456.329 207.879 455.786 208.735 455.786C209.64 455.786 210.195 456.317 210.207 457.161H207.24Z" fill="white"/>
<path d="M218.266 460.683L217.989 461.371C217.748 461.974 217.555 462.227 216.843 462.227C216.59 462.227 216.336 462.167 216.107 462.082L215.926 463.385C216.288 463.482 216.662 463.53 217.036 463.53C218.315 463.53 218.821 462.963 219.243 461.877L221.981 454.845H220.474L219.026 458.862H219.002L217.386 454.845H215.793L218.266 460.683Z" fill="white"/>
<path d="M222.543 457.74C222.543 459.561 223.942 460.78 225.691 460.78C227.44 460.78 228.84 459.561 228.84 457.74C228.84 455.919 227.44 454.7 225.691 454.7C223.942 454.7 222.543 455.919 222.543 457.74ZM223.991 457.74C223.991 456.835 224.63 456.003 225.691 456.003C226.753 456.003 227.392 456.835 227.392 457.74C227.392 458.645 226.753 459.477 225.691 459.477C224.63 459.477 223.991 458.645 223.991 457.74Z" fill="white"/>
<path d="M235.478 454.845H234.031V458.005C234.031 458.777 233.657 459.477 232.704 459.477C231.691 459.477 231.642 458.415 231.642 457.776V454.845H230.195V458.5C230.195 459.682 230.75 460.78 232.306 460.78C233.271 460.78 233.814 460.285 234.079 459.706H234.103V460.635H235.478V454.845Z" fill="white"/>
<path d="M237.121 460.635H238.569V457.535C238.569 457.221 238.762 456.075 240.125 456.075C240.354 456.075 240.583 456.124 240.825 456.184V454.785C240.656 454.736 240.487 454.7 240.306 454.7C239.546 454.7 238.907 455.098 238.593 455.762H238.569V454.845H237.121V460.635Z" fill="white"/>
<path d="M173.005 472.571V472.173C173.005 470.158 171.908 469.024 170.291 469.024C168.542 469.024 167.143 470.243 167.143 472.064C167.143 473.886 168.542 475.104 170.291 475.104C171.208 475.104 172.064 474.778 172.74 473.946L171.702 473.162C171.341 473.608 170.87 473.946 170.146 473.946C169.338 473.946 168.687 473.427 168.59 472.571H173.005ZM168.59 471.485C168.699 470.653 169.23 470.11 170.086 470.11C170.991 470.11 171.546 470.641 171.558 471.485H168.59Z" fill="white"/>
<path d="M173.527 474.959H175.239L176.759 472.884L178.267 474.959H180.028L177.7 471.847L179.678 469.169H178.026L176.771 470.906L175.613 469.169H173.852L175.855 471.847L173.527 474.959Z" fill="white"/>
<path d="M180.838 477.709H182.285V474.223H182.321C182.623 474.597 183.202 475.104 184.288 475.104C185.94 475.104 187.086 473.777 187.086 472.064C187.086 470.351 186.012 469.024 184.227 469.024C183.419 469.024 182.659 469.338 182.237 470.038H182.213V469.169H180.838V477.709ZM185.639 472.064C185.639 472.969 184.999 473.801 183.938 473.801C182.876 473.801 182.237 472.969 182.237 472.064C182.237 471.159 182.876 470.327 183.938 470.327C184.999 470.327 185.639 471.159 185.639 472.064Z" fill="white"/>
<path d="M194.009 472.571V472.173C194.009 470.158 192.911 469.024 191.294 469.024C189.545 469.024 188.146 470.243 188.146 472.064C188.146 473.886 189.545 475.104 191.294 475.104C192.211 475.104 193.068 474.778 193.743 473.946L192.706 473.162C192.344 473.608 191.873 473.946 191.15 473.946C190.342 473.946 189.69 473.427 189.594 472.571H194.009ZM189.594 471.485C189.702 470.653 190.233 470.11 191.089 470.11C191.994 470.11 192.549 470.641 192.561 471.485H189.594Z" fill="white"/>
<path d="M195.362 474.959H196.81V471.799C196.81 471.027 197.184 470.327 198.137 470.327C199.15 470.327 199.198 471.389 199.198 472.028V474.959H200.646V471.304C200.646 470.122 200.091 469.024 198.535 469.024C197.57 469.024 197.027 469.519 196.761 470.098H196.737V469.169H195.362V474.959Z" fill="white"/>
<path d="M206.342 469.905C205.871 469.266 205.051 469.024 204.279 469.024C203.109 469.024 201.951 469.603 201.951 470.894C201.951 473.102 205.075 472.161 205.075 473.355C205.075 473.813 204.532 474.018 204.11 474.018C203.495 474.018 203.109 473.717 202.735 473.307L201.77 474.211C202.361 474.875 203.133 475.104 204.026 475.104C205.208 475.104 206.523 474.621 206.523 473.246C206.523 470.991 203.398 471.835 203.398 470.798C203.398 470.363 203.857 470.182 204.243 470.182C204.737 470.182 205.099 470.387 205.377 470.773L206.342 469.905Z" fill="white"/>
<path d="M213.221 472.571V472.173C213.221 470.158 212.124 469.024 210.507 469.024C208.758 469.024 207.359 470.243 207.359 472.064C207.359 473.886 208.758 475.104 210.507 475.104C211.424 475.104 212.28 474.778 212.956 473.946L211.919 473.162C211.557 473.608 211.086 473.946 210.363 473.946C209.554 473.946 208.903 473.427 208.806 472.571H213.221ZM208.806 471.485C208.915 470.653 209.446 470.11 210.302 470.11C211.207 470.11 211.762 470.641 211.774 471.485H208.806Z" fill="white"/>
<path d="M218.628 469.905C218.158 469.266 217.337 469.024 216.565 469.024C215.395 469.024 214.237 469.603 214.237 470.894C214.237 473.102 217.361 472.161 217.361 473.355C217.361 473.813 216.819 474.018 216.396 474.018C215.781 474.018 215.395 473.717 215.021 473.307L214.056 474.211C214.647 474.875 215.419 475.104 216.312 475.104C217.494 475.104 218.809 474.621 218.809 473.246C218.809 470.991 215.685 471.835 215.685 470.798C215.685 470.363 216.143 470.182 216.529 470.182C217.024 470.182 217.386 470.387 217.663 470.773L218.628 469.905Z" fill="white"/>
<path d="M223.528 474.959H224.976V469.169H223.528V474.959ZM223.323 467.203C223.323 467.661 223.709 468.071 224.24 468.071C224.771 468.071 225.181 467.698 225.181 467.203C225.181 466.708 224.771 466.334 224.24 466.334C223.709 466.334 223.323 466.745 223.323 467.203Z" fill="white"/>
<path d="M226.637 474.959H228.085V471.799C228.085 471.027 228.459 470.327 229.412 470.327C230.425 470.327 230.473 471.389 230.473 472.028V474.959H231.921V471.304C231.921 470.122 231.366 469.024 229.81 469.024C228.845 469.024 228.302 469.519 228.037 470.098H228.013V469.169H226.637V474.959Z" fill="white"/>
<path d="M167.143 486.388C167.143 488.21 168.542 489.428 170.291 489.428C172.04 489.428 173.439 488.21 173.439 486.388C173.439 484.567 172.04 483.349 170.291 483.349C168.542 483.349 167.143 484.567 167.143 486.388ZM168.59 486.388C168.59 485.484 169.23 484.651 170.291 484.651C171.353 484.651 171.992 485.484 171.992 486.388C171.992 487.293 171.353 488.125 170.291 488.125C169.23 488.125 168.59 487.293 168.59 486.388Z" fill="white"/>
<path d="M174.795 489.283H176.242V486.123C176.242 485.351 176.616 484.651 177.569 484.651C178.582 484.651 178.631 485.713 178.631 486.352V489.283H180.078V485.628C180.078 484.446 179.523 483.349 177.967 483.349C177.002 483.349 176.459 483.843 176.194 484.422H176.17V483.493H174.795V489.283Z" fill="white"/>
<path d="M187.294 486.895V486.497C187.294 484.482 186.196 483.349 184.58 483.349C182.831 483.349 181.432 484.567 181.432 486.388C181.432 488.21 182.831 489.428 184.58 489.428C185.497 489.428 186.353 489.102 187.029 488.27L185.991 487.486C185.629 487.932 185.159 488.27 184.435 488.27C183.627 488.27 182.976 487.751 182.879 486.895H187.294ZM182.879 485.809C182.988 484.977 183.518 484.434 184.375 484.434C185.28 484.434 185.834 484.965 185.847 485.809H182.879Z" fill="white"/>
<path d="M192.217 492.034H193.664V488.548H193.701C194.002 488.921 194.581 489.428 195.667 489.428C197.319 489.428 198.465 488.101 198.465 486.388C198.465 484.675 197.392 483.349 195.607 483.349C194.798 483.349 194.038 483.662 193.616 484.362H193.592V483.493H192.217V492.034ZM197.018 486.388C197.018 487.293 196.379 488.125 195.317 488.125C194.256 488.125 193.616 487.293 193.616 486.388C193.616 485.484 194.256 484.651 195.317 484.651C196.379 484.651 197.018 485.484 197.018 486.388Z" fill="white"/>
<path d="M199.839 489.283H201.287V480.164H199.839V489.283Z" fill="white"/>
<path d="M206.567 489.283H207.87V485.954C207.87 485.134 207.87 483.349 205.397 483.349C204.48 483.349 203.576 483.626 202.936 484.277L203.696 485.037C204.082 484.675 204.637 484.434 205.24 484.434C206.012 484.434 206.567 484.808 206.567 485.52V485.677H206.205C204.758 485.677 202.562 485.809 202.562 487.691C202.562 488.837 203.6 489.428 204.673 489.428C205.445 489.428 206.121 489.139 206.531 488.487H206.567V489.283ZM206.483 487.016C206.483 487.824 206.012 488.342 205.023 488.342C204.553 488.342 204.01 488.113 204.01 487.583C204.01 486.75 205.385 486.69 206.181 486.69H206.483V487.016Z" fill="white"/>
<path d="M214.385 484.229C213.83 483.614 213.022 483.349 212.286 483.349C210.537 483.349 209.138 484.567 209.138 486.388C209.138 488.21 210.537 489.428 212.286 489.428C212.793 489.428 213.782 489.211 214.373 488.62L213.408 487.583C213.142 487.932 212.732 488.125 212.286 488.125C211.225 488.125 210.585 487.293 210.585 486.388C210.585 485.484 211.225 484.651 212.286 484.651C212.672 484.651 213.046 484.881 213.384 485.23L214.385 484.229Z" fill="white"/>
<path d="M220.819 486.895V486.497C220.819 484.482 219.722 483.349 218.105 483.349C216.356 483.349 214.957 484.567 214.957 486.388C214.957 488.21 216.356 489.428 218.105 489.428C219.022 489.428 219.878 489.102 220.554 488.27L219.517 487.486C219.155 487.932 218.684 488.27 217.96 488.27C217.152 488.27 216.501 487.751 216.404 486.895H220.819ZM216.404 485.809C216.513 484.977 217.044 484.434 217.9 484.434C218.805 484.434 219.36 484.965 219.372 485.809H216.404Z" fill="white"/>
</g>
<path id="Subtract" fill-rule="evenodd" clip-rule="evenodd" d="M199.785 369.413C199.785 378.573 192.36 385.999 183.199 385.999C174.039 385.999 166.614 378.573 166.614 369.413C166.614 360.253 174.039 352.827 183.199 352.827C192.36 352.827 199.785 360.253 199.785 369.413ZM180.184 364.89H177.922C176.673 364.89 175.66 365.902 175.66 367.151V369.203V373.936C175.662 375.185 176.674 376.197 177.922 376.198H188.477C189.725 376.197 190.737 375.185 190.738 373.936V369.203V367.151C190.738 365.902 189.726 364.89 188.477 364.89H186.215V364.136C186.214 363.303 185.54 362.629 184.707 362.628H181.692C180.859 362.629 180.185 363.303 180.184 364.136V364.89ZM181.692 364.89H184.707V364.136H181.692V364.89Z" fill="white"/>
</g>
<g id="card_2">
<g id="Everything you love... and more!" filter="url(#filter1_d_14_1962)">
<path d="M37.8949 460.635H43.7693V459.26H39.4148V456.944H43.3351V455.569H39.4148V453.47H43.5522V452.095H37.8949V460.635Z" fill="white"/>
<path d="M46.7165 460.635H48.2605L50.5403 454.845H49.0567L47.5006 458.898H47.4765L45.9325 454.845H44.3523L46.7165 460.635Z" fill="white"/>
<path d="M56.9643 458.247V457.849C56.9643 455.834 55.8666 454.701 54.2502 454.701C52.5012 454.701 51.1019 455.919 51.1019 457.74C51.1019 459.562 52.5012 460.78 54.2502 460.78C55.167 460.78 56.0234 460.454 56.6989 459.622L55.6615 458.838C55.2997 459.284 54.8292 459.622 54.1055 459.622C53.2973 459.622 52.6459 459.103 52.5494 458.247H56.9643ZM52.5494 457.161C52.658 456.329 53.1887 455.786 54.0452 455.786C54.9498 455.786 55.5047 456.317 55.5168 457.161H52.5494Z" fill="white"/>
<path d="M58.3179 460.635H59.7654V457.535C59.7654 457.222 59.9584 456.076 61.3215 456.076C61.5507 456.076 61.7798 456.124 62.0211 456.184V454.785C61.8522 454.737 61.6833 454.701 61.5024 454.701C60.7425 454.701 60.1032 455.099 59.7895 455.762H59.7654V454.845H58.3179V460.635Z" fill="white"/>
<path d="M64.695 460.684L64.4176 461.371C64.1763 461.974 63.9833 462.228 63.2716 462.228C63.0183 462.228 62.765 462.167 62.5358 462.083L62.3549 463.386C62.7168 463.482 63.0907 463.53 63.4646 463.53C64.7433 463.53 65.2499 462.963 65.6721 461.878L68.4102 454.845H66.9024L65.4549 458.862H65.4308L63.8144 454.845H62.2222L64.695 460.684Z" fill="white"/>
<path d="M69.78 456.076V458.729C69.78 460.093 70.1419 460.78 71.6738 460.78C72.0116 460.78 72.5182 460.732 72.8197 460.587V459.369C72.6388 459.501 72.289 459.55 72.0357 459.55C71.3964 459.55 71.2275 459.188 71.2275 458.609V456.076H72.8197V454.845H71.2275V453.169H69.78V454.845H68.5858V456.076H69.78Z" fill="white"/>
<path d="M75.3972 451.516H73.9497V460.635H75.3972V457.475C75.3972 456.703 75.7711 456.003 76.724 456.003C77.7373 456.003 77.7855 457.065 77.7855 457.704V460.635H79.233V456.98C79.233 455.798 78.6782 454.701 77.1221 454.701C76.2295 454.701 75.6505 455.171 75.4213 455.654H75.3972V451.516Z" fill="white"/>
<path d="M80.9003 460.635H82.3478V454.845H80.9003V460.635ZM80.6952 452.879C80.6952 453.338 81.0812 453.748 81.612 453.748C82.1427 453.748 82.5528 453.374 82.5528 452.879C82.5528 452.385 82.1427 452.011 81.612 452.011C81.0812 452.011 80.6952 452.421 80.6952 452.879Z" fill="white"/>
<path d="M84.0096 460.635H85.4571V457.475C85.4571 456.703 85.831 456.003 86.7839 456.003C87.7972 456.003 87.8454 457.065 87.8454 457.704V460.635H89.2929V456.98C89.2929 455.798 88.7381 454.701 87.182 454.701C86.217 454.701 85.6742 455.195 85.4088 455.774H85.3847V454.845H84.0096V460.635Z" fill="white"/>
<path d="M95.5198 454.845V455.714H95.4957C95.0735 455.014 94.3136 454.701 93.5054 454.701C91.7201 454.701 90.6466 456.027 90.6466 457.74C90.6466 459.381 91.7925 460.708 93.5295 460.708C94.2533 460.708 95.0011 460.43 95.4233 459.863H95.4474V460.286C95.4474 461.431 95.0132 462.228 93.614 462.228C92.8058 462.228 92.2026 461.926 91.6236 461.395L90.7551 462.577C91.5754 463.301 92.5525 463.53 93.626 463.53C95.8817 463.53 96.8949 462.203 96.8949 460.117V454.845H95.5198ZM93.807 456.003C94.8564 456.003 95.5198 456.703 95.5198 457.704C95.5198 458.669 94.8684 459.405 93.7949 459.405C92.8178 459.405 92.0941 458.645 92.0941 457.728C92.0941 456.703 92.7937 456.003 93.807 456.003Z" fill="white"/>
<path d="M103.792 460.684L103.515 461.371C103.273 461.974 103.08 462.228 102.369 462.228C102.115 462.228 101.862 462.167 101.633 462.083L101.452 463.386C101.814 463.482 102.188 463.53 102.562 463.53C103.84 463.53 104.347 462.963 104.769 461.878L107.507 454.845H105.999L104.552 458.862H104.528L102.911 454.845H101.319L103.792 460.684Z" fill="white"/>
<path d="M108.069 457.74C108.069 459.562 109.468 460.78 111.217 460.78C112.966 460.78 114.365 459.562 114.365 457.74C114.365 455.919 112.966 454.701 111.217 454.701C109.468 454.701 108.069 455.919 108.069 457.74ZM109.516 457.74C109.516 456.836 110.156 456.003 111.217 456.003C112.279 456.003 112.918 456.836 112.918 457.74C112.918 458.645 112.279 459.477 111.217 459.477C110.156 459.477 109.516 458.645 109.516 457.74Z" fill="white"/>
<path d="M121.004 454.845H119.557V458.006C119.557 458.778 119.183 459.477 118.23 459.477C117.216 459.477 117.168 458.416 117.168 457.777V454.845H115.721V458.5C115.721 459.682 116.276 460.78 117.832 460.78C118.797 460.78 119.339 460.286 119.605 459.707H119.629V460.635H121.004V454.845Z" fill="white"/>
<path d="M37.7863 474.96H39.2338V465.84H37.7863V474.96Z" fill="white"/>
<path d="M40.6061 472.065C40.6061 473.886 42.0054 475.104 43.7544 475.104C45.5035 475.104 46.9028 473.886 46.9028 472.065C46.9028 470.243 45.5035 469.025 43.7544 469.025C42.0054 469.025 40.6061 470.243 40.6061 472.065ZM42.0536 472.065C42.0536 471.16 42.6929 470.328 43.7544 470.328C44.8159 470.328 45.4553 471.16 45.4553 472.065C45.4553 472.969 44.8159 473.802 43.7544 473.802C42.6929 473.802 42.0536 472.969 42.0536 472.065Z" fill="white"/>
<path d="M49.8382 474.96H51.3822L53.662 469.17H52.1783L50.6222 473.223H50.5981L49.0541 469.17H47.4739L49.8382 474.96Z" fill="white"/>
<path d="M60.0859 472.571V472.173C60.0859 470.159 58.9882 469.025 57.3719 469.025C55.6228 469.025 54.2235 470.243 54.2235 472.065C54.2235 473.886 55.6228 475.104 57.3719 475.104C58.2886 475.104 59.145 474.779 59.8205 473.946L58.7832 473.162C58.4213 473.609 57.9509 473.946 57.2271 473.946C56.4189 473.946 55.7675 473.428 55.671 472.571H60.0859ZM55.671 471.486C55.7796 470.653 56.3104 470.11 57.1668 470.11C58.0715 470.11 58.6264 470.641 58.6384 471.486H55.671Z" fill="white"/>
<path d="M61.4395 474.115C61.4395 474.634 61.8979 475.032 62.4045 475.032C62.9353 475.032 63.3695 474.61 63.3695 474.091C63.3695 473.572 62.9232 473.174 62.4045 473.174C61.8738 473.174 61.4395 473.596 61.4395 474.115Z" fill="white"/>
<path d="M65.0088 474.115C65.0088 474.634 65.4672 475.032 65.9738 475.032C66.5046 475.032 66.9388 474.61 66.9388 474.091C66.9388 473.572 66.4925 473.174 65.9738 473.174C65.4431 473.174 65.0088 473.596 65.0088 474.115Z" fill="white"/>
<path d="M68.5781 474.115C68.5781 474.634 69.0365 475.032 69.5431 475.032C70.0738 475.032 70.5081 474.61 70.5081 474.091C70.5081 473.572 70.0618 473.174 69.5431 473.174C69.0123 473.174 68.5781 473.596 68.5781 474.115Z" fill="white"/>
<path d="M79.3354 474.96H80.6381V471.63C80.6381 470.81 80.6381 469.025 78.1653 469.025C77.2486 469.025 76.3439 469.302 75.7046 469.954L76.4645 470.714C76.8505 470.352 77.4054 470.11 78.0085 470.11C78.7805 470.11 79.3354 470.484 79.3354 471.196V471.353H78.9735C77.526 471.353 75.3306 471.486 75.3306 473.367C75.3306 474.513 76.368 475.104 77.4416 475.104C78.2136 475.104 78.8891 474.815 79.2992 474.163H79.3354V474.96ZM79.2509 472.692C79.2509 473.5 78.7805 474.019 77.7914 474.019C77.3209 474.019 76.7781 473.789 76.7781 473.259C76.7781 472.426 78.1532 472.366 78.9494 472.366H79.2509V472.692Z" fill="white"/>
<path d="M82.1955 474.96H83.643V471.799C83.643 471.027 84.0169 470.328 84.9699 470.328C85.9831 470.328 86.0314 471.389 86.0314 472.028V474.96H87.4789V471.305C87.4789 470.122 86.924 469.025 85.3679 469.025C84.4029 469.025 83.8601 469.519 83.5947 470.098H83.5706V469.17H82.1955V474.96Z" fill="white"/>
<path d="M93.7057 474.96H95.0809V465.84H93.6334V469.905H93.5972C93.2956 469.531 92.7166 469.025 91.631 469.025C89.9784 469.025 88.8325 470.352 88.8325 472.065C88.8325 473.777 89.9061 475.104 91.6913 475.104C92.4995 475.104 93.2594 474.791 93.6816 474.091H93.7057V474.96ZM90.28 472.065C90.28 471.16 90.9193 470.328 91.9808 470.328C93.0423 470.328 93.6816 471.16 93.6816 472.065C93.6816 472.969 93.0423 473.802 91.9808 473.802C90.9193 473.802 90.28 472.969 90.28 472.065Z" fill="white"/>
<path d="M37.7019 489.284H39.1494V486.123C39.1494 485.351 39.5233 484.652 40.4763 484.652C41.1759 484.652 41.4654 485.122 41.4654 485.834V489.284H42.9129V486.147C42.9129 485.4 43.2506 484.652 44.1553 484.652C45.0118 484.652 45.2289 485.279 45.2289 486.003V489.284H46.6764V485.834C46.6764 484.447 46.1336 483.349 44.5896 483.349C43.7211 483.349 43.1059 483.687 42.6837 484.423C42.3821 483.699 41.767 483.349 40.8743 483.349C39.9093 483.349 39.3545 483.856 39.1012 484.398H39.077V483.494H37.7019V489.284Z" fill="white"/>
<path d="M47.9685 486.389C47.9685 488.21 49.3677 489.428 51.1168 489.428C52.8659 489.428 54.2651 488.21 54.2651 486.389C54.2651 484.567 52.8659 483.349 51.1168 483.349C49.3677 483.349 47.9685 484.567 47.9685 486.389ZM49.416 486.389C49.416 485.484 50.0553 484.652 51.1168 484.652C52.1783 484.652 52.8176 485.484 52.8176 486.389C52.8176 487.293 52.1783 488.126 51.1168 488.126C50.0553 488.126 49.416 487.293 49.416 486.389Z" fill="white"/>
<path d="M55.6203 489.284H57.0678V486.184C57.0678 485.87 57.2608 484.724 58.6239 484.724C58.8531 484.724 59.0823 484.772 59.3235 484.833V483.433C59.1547 483.385 58.9858 483.349 58.8048 483.349C58.0449 483.349 57.4056 483.747 57.092 484.41H57.0678V483.494H55.6203V489.284Z" fill="white"/>
<path d="M65.6695 486.895V486.497C65.6695 484.483 64.5718 483.349 62.9555 483.349C61.2064 483.349 59.8072 484.567 59.8072 486.389C59.8072 488.21 61.2064 489.428 62.9555 489.428C63.8722 489.428 64.7286 489.103 65.4041 488.27L64.3668 487.486C64.0049 487.933 63.5345 488.27 62.8107 488.27C62.0025 488.27 61.3512 487.752 61.2547 486.895H65.6695ZM61.2547 485.81C61.3632 484.977 61.894 484.435 62.7504 484.435C63.6551 484.435 64.21 484.965 64.222 485.81H61.2547Z" fill="white"/>
<path d="M68.7119 480.744H67.2644V486.606H68.7119V480.744ZM67.0232 488.439C67.0232 488.958 67.4815 489.356 67.9882 489.356C68.5189 489.356 68.9532 488.934 68.9532 488.415C68.9532 487.897 68.5068 487.498 67.9882 487.498C67.4574 487.498 67.0232 487.921 67.0232 488.439Z" fill="white"/>
</g>
<path id="Subtract_2" fill-rule="evenodd" clip-rule="evenodd" d="M54.2822 385.999C63.4423 385.999 70.8681 378.573 70.8681 369.413C70.8681 360.253 63.4423 352.827 54.2822 352.827C45.1221 352.827 37.6963 360.253 37.6963 369.413C37.6963 378.573 45.1221 385.999 54.2822 385.999ZM57.4528 363.439C58.581 363.527 59.6404 364.016 60.4395 364.817C61.3198 365.703 61.8139 366.901 61.8139 368.15C61.8139 369.398 61.3198 370.596 60.4395 371.482L55.7578 376.171C55.3658 376.557 54.8377 376.773 54.2877 376.773C53.7376 376.773 53.2096 376.557 52.8176 376.171L48.1358 371.482C47.2875 370.639 46.7899 369.507 46.7432 368.312C46.6965 367.118 47.1041 365.95 47.884 365.044C48.6639 364.138 49.7581 363.561 50.9463 363.429C52.1345 363.298 53.3285 363.621 54.2877 364.335C55.202 363.668 56.3246 363.35 57.4528 363.439Z" fill="white"/>
</g>
<g id="tab-balance">
<g id="buttons">
<g id="button-3">
<rect id="Rectangle 2" x="229.187" y="231.448" width="30.1562" height="26.3867" rx="10" fill="#E6F0FD"/>
</g>
<g id="button-2">
<rect id="Rectangle 2_2" x="148.52" y="232.203" width="68.6054" height="26.3867" rx="10" fill="#E6F0FD"/>
</g>
<g id="button-1">
<rect id="Rectangle 2_3" x="36.1882" y="231.448" width="100.269" height="26.3867" rx="10" fill="#E6F0FD"/>
</g>
</g>
<g id="balance-details">
<g id="currency">
<path d="M47.973 188.984H47.1045V194.243C47.1045 196.704 45.5002 196.945 44.8488 196.945C44.1974 196.945 42.5931 196.704 42.5931 194.243V188.984H41.7246V194.34C41.7246 195.763 42.2915 197.741 44.8488 197.741C47.406 197.741 47.973 195.763 47.973 194.34V188.984Z" fill="black"/>
<path d="M54.9396 189.804C54.2641 189.032 53.4921 188.767 52.5271 188.767C51.1399 188.767 49.7648 189.539 49.7648 191.191C49.7648 194.315 54.1435 192.976 54.1435 195.389C54.1435 196.39 53.1664 196.945 52.31 196.945C51.4174 196.945 50.7298 196.535 50.3679 195.908L49.5839 196.475C50.2353 197.367 51.2364 197.741 52.2738 197.741C53.6248 197.741 55.0844 196.824 55.0844 195.268C55.0844 192.192 50.7057 193.411 50.7057 191.107C50.7057 190.033 51.6345 189.563 52.5271 189.563C53.2509 189.563 53.8057 189.84 54.1797 190.395L54.9396 189.804Z" fill="black"/>
<path d="M60.078 197.524H62.9127C65.0478 197.524 67.4 196.101 67.4 193.254C67.4 190.407 65.0478 188.984 62.9127 188.984H60.078V197.524ZM60.9465 189.78H62.6353C65.2408 189.78 66.4591 191.493 66.4591 193.254C66.4591 195.015 65.2408 196.728 62.6353 196.728H60.9465V189.78Z" fill="black"/>
<path d="M74.5556 194.701C74.5556 193.001 73.3131 191.734 71.552 191.734C69.8029 191.734 68.5605 193.001 68.5605 194.701C68.5605 196.402 69.8029 197.669 71.552 197.669C73.3131 197.669 74.5556 196.402 74.5556 194.701ZM73.6871 194.701C73.6871 195.968 72.8668 196.945 71.552 196.945C70.2493 196.945 69.429 195.968 69.429 194.701C69.429 193.435 70.2493 192.458 71.552 192.458C72.8668 192.458 73.6871 193.435 73.6871 194.701Z" fill="black"/>
<path d="M76.9774 188.405H76.1813V197.524H76.9774V188.405Z" fill="black"/>
<path d="M79.8752 188.405H79.0791V197.524H79.8752V188.405Z" fill="black"/>
<path d="M85.0167 194.062C83.6657 194.062 81.5065 194.183 81.5065 196.016C81.5065 197.114 82.4474 197.669 83.4485 197.669C84.3532 197.669 84.9805 197.355 85.4388 196.607H85.463C85.463 196.909 85.4871 197.247 85.5353 197.524H86.3073C86.2591 197.222 86.2108 196.692 86.2108 196.257V193.736C86.2108 192.361 85.2579 191.734 84.1482 191.734C83.0867 191.734 82.2785 192.024 81.7598 192.554L82.2423 193.121C82.7248 192.687 83.3038 192.458 83.9672 192.458C84.9443 192.458 85.4147 192.94 85.4147 193.917V194.062H85.0167ZM85.4147 194.713V195.124C85.4147 196.125 84.8598 196.945 83.7018 196.945C83.0625 196.945 82.375 196.656 82.375 195.908C82.375 194.774 84.1964 194.713 85.0046 194.713H85.4147Z" fill="black"/>
<path d="M88.1355 197.524H88.9316V194.34C88.9316 193.58 89.4744 192.53 90.6806 192.53C90.8978 192.53 91.0425 192.554 91.139 192.59L91.2958 191.806C91.127 191.758 90.934 191.734 90.7048 191.734C89.7156 191.734 89.1246 192.325 88.8954 192.928H88.8713V191.879H88.0872C88.1113 192.699 88.1355 193.133 88.1355 193.64V197.524Z" fill="black"/>
<path d="M95.7593 192.747C95.3975 192.011 94.6616 191.734 93.8776 191.734C92.8161 191.734 91.7908 192.265 91.7908 193.435C91.7908 194.508 92.8523 194.822 93.2383 194.919L94.0103 195.099C94.6013 195.244 95.0838 195.437 95.0838 196.004C95.0838 196.656 94.4083 196.945 93.757 196.945C93.0935 196.945 92.599 196.607 92.2733 196.101L91.5857 196.571C92.1165 197.367 92.9005 197.669 93.757 197.669C94.8546 197.669 95.9523 197.162 95.9523 195.932C95.9523 195.136 95.3613 194.569 94.5772 194.388L93.769 194.195C93.0332 194.026 92.6593 193.833 92.6593 193.302C92.6593 192.699 93.2745 192.458 93.8293 192.458C94.4083 192.458 94.8064 192.759 95.0476 193.218L95.7593 192.747Z" fill="black"/>
</g>
</g>
</g>
<g id="tab-menu">
<g id="selected-tab">
<g id="Home">
<path d="M41.8091 85.1909H42.9671V81.2826H47.394V85.1909H48.552V76.6506H47.394V80.197H42.9671V76.6506H41.8091V85.1909Z" fill="black"/>
<path d="M51.353 82.3321C51.353 81.1741 52.0768 80.3418 53.2348 80.3418C54.3928 80.3418 55.1165 81.1741 55.1165 82.3321C55.1165 83.4901 54.3928 84.3224 53.2348 84.3224C52.0768 84.3224 51.353 83.4901 51.353 82.3321ZM50.1951 82.3321C50.1951 83.9967 51.534 85.3356 53.2348 85.3356C54.9356 85.3356 56.2745 83.9967 56.2745 82.3321C56.2745 80.6674 54.9356 79.3285 53.2348 79.3285C51.534 79.3285 50.1951 80.6674 50.1951 82.3321Z" fill="black"/>
<path d="M57.6346 85.1909H58.7202V82.2235C58.7202 80.9328 59.4198 80.3418 60.2039 80.3418C61.2533 80.3418 61.4101 81.1138 61.4101 82.1994V85.1909H62.4958V82.0667C62.4958 81.0534 62.9059 80.3418 63.9553 80.3418C65.0048 80.3418 65.1857 81.1379 65.1857 82.0064V85.1909H66.2713V81.8616C66.2713 80.583 65.8612 79.3285 64.1001 79.3285C63.4125 79.3285 62.6646 79.6904 62.2907 80.39C61.9288 79.6904 61.3498 79.3285 60.5055 79.3285C59.4801 79.3285 58.7805 80.0281 58.672 80.3659H58.6478V79.4733H57.6346V85.1909Z" fill="black"/>
<path d="M73.3105 82.7301V82.3441C73.3105 80.8725 72.5385 79.3285 70.5241 79.3285C68.8112 79.3285 67.5688 80.6192 67.5688 82.3321C67.5688 84.0329 68.7027 85.3356 70.512 85.3356C71.6097 85.3356 72.442 84.9496 73.0452 84.1656L72.2249 83.5383C71.8027 84.057 71.3202 84.3947 70.6568 84.3947C69.6556 84.3947 68.7268 83.7313 68.7268 82.7301H73.3105ZM68.7268 81.8616C68.7268 81.1017 69.4264 80.197 70.5 80.197C71.5977 80.197 72.1284 80.9087 72.1525 81.8616H68.7268Z" fill="black"/>
</g>
</g>
</g>
<g id="search-bar">
<g id="text">
<g id="Search">
<path d="M60.6209 28.9505C59.9876 28.2267 59.2638 27.9779 58.3591 27.9779C57.0587 27.9779 55.7695 28.7017 55.7695 30.251C55.7695 33.1799 59.8745 31.9246 59.8745 34.1863C59.8745 35.125 58.9585 35.6452 58.1556 35.6452C57.3188 35.6452 56.6742 35.2607 56.3349 34.6726L55.5999 35.2041C56.2105 36.041 57.1491 36.3915 58.1217 36.3915C59.3882 36.3915 60.7566 35.5321 60.7566 34.0733C60.7566 31.1896 56.6516 32.3317 56.6516 30.1718C56.6516 29.1653 57.5223 28.7243 58.3591 28.7243C59.0377 28.7243 59.5579 28.9844 59.9084 29.5046L60.6209 28.9505Z" fill="#8D97A0"/>
<path d="M67.063 33.7453V33.4061C67.063 31.9586 66.1356 30.7711 64.5298 30.7598C63.0258 30.7598 61.861 31.9472 61.861 33.5418C61.861 35.1363 63.0258 36.3237 64.5977 36.3237C65.4684 36.3237 66.2487 35.9957 66.8707 35.2041L66.294 34.7292C65.9999 35.2041 65.3893 35.6452 64.5977 35.6452C63.546 35.6452 62.7431 34.8083 62.6526 33.7453H67.063ZM62.6752 33.1346C62.6752 32.2639 63.5573 31.4384 64.5298 31.4384C65.6041 31.4384 66.2487 32.1282 66.2487 33.1346H62.6752Z" fill="#8D97A0"/>
<path d="M71.4356 32.9424C70.169 32.9424 68.1448 33.0555 68.1448 34.7744C68.1448 35.8035 69.0268 36.3237 69.9655 36.3237C70.8136 36.3237 71.4016 36.0296 71.8314 35.3285H71.854C71.854 35.6112 71.8766 35.9279 71.9218 36.188H72.6456C72.6004 35.9052 72.5551 35.4077 72.5551 35.0006V32.6371C72.5551 31.3479 71.6617 30.7598 70.6214 30.7598C69.6262 30.7598 68.8685 31.0312 68.3823 31.5288L68.8346 32.0603C69.2869 31.6532 69.8298 31.4384 70.4517 31.4384C71.3677 31.4384 71.8088 31.8907 71.8088 32.8067V32.9424H71.4356ZM71.8088 33.5531V33.9376C71.8088 34.8762 71.2886 35.6452 70.2029 35.6452C69.6036 35.6452 68.959 35.3737 68.959 34.6726C68.959 33.6096 70.6666 33.5531 71.4243 33.5531H71.8088Z" fill="#8D97A0"/>
<path d="M74.3595 36.188H75.1058V33.2025C75.1058 32.4901 75.6147 31.5062 76.7456 31.5062C76.9491 31.5062 77.0848 31.5288 77.1753 31.5628L77.3223 30.8277C77.164 30.7825 76.983 30.7598 76.7682 30.7598C75.8409 30.7598 75.2868 31.314 75.0719 31.8794H75.0493V30.8955H74.3142C74.3368 31.6645 74.3595 32.0716 74.3595 32.5466V36.188Z" fill="#8D97A0"/>
<path d="M82.3032 31.6758C81.783 31.0652 81.0819 30.7711 80.3694 30.7598C78.6392 30.7372 77.5649 31.9472 77.5649 33.5418C77.5649 35.1363 78.6392 36.3463 80.3694 36.3237C81.0819 36.3124 81.783 36.0183 82.3032 35.4077L81.6925 34.944C81.4437 35.3285 80.9575 35.6452 80.3694 35.6452C79.1368 35.6678 78.3791 34.7518 78.3791 33.5418C78.3791 32.3317 79.1368 31.4157 80.3694 31.4384C80.9575 31.4384 81.4437 31.755 81.6925 32.1395L82.3032 31.6758Z" fill="#8D97A0"/>
<path d="M83.2918 36.188H84.0382V33.4739C84.0382 31.5401 85.4857 31.4384 85.644 31.4384C86.7522 31.4384 87.0802 32.0829 87.0802 33.259V36.188H87.8266V32.8293C87.8266 31.5175 87.182 30.7598 85.8362 30.7598C85.1351 30.7598 84.3887 31.167 84.0608 31.7437H84.0382V27.6387H83.2918V36.188Z" fill="#8D97A0"/>
</g>
<path id="Vector_3" d="M45.8506 36.1151L44.0337 34.3115C44.739 33.4315 45.0805 32.3144 44.9881 31.1901C44.8957 30.0658 44.3763 29.0196 43.5368 28.2667C42.6973 27.5138 41.6015 27.1114 40.4747 27.1423C39.3478 27.1731 38.2756 27.6349 37.4785 28.4326C36.6814 29.2303 36.22 30.3033 36.1892 31.431C36.1583 32.5587 36.5604 33.6554 37.3127 34.4956C38.065 35.3357 39.1104 35.8554 40.2339 35.9479C41.3574 36.0404 42.4736 35.6986 43.3529 34.9928L45.1552 36.7964C45.2007 36.8423 45.2549 36.8788 45.3146 36.9037C45.3743 36.9286 45.4383 36.9414 45.5029 36.9414C45.5676 36.9414 45.6316 36.9286 45.6913 36.9037C45.751 36.8788 45.8051 36.8423 45.8506 36.7964C45.9389 36.705 45.9883 36.5829 45.9883 36.4558C45.9883 36.3287 45.9389 36.2065 45.8506 36.1151V36.1151ZM40.6055 34.9928C39.9274 34.9928 39.2646 34.7916 38.7008 34.4146C38.1371 34.0376 37.6977 33.5018 37.4382 32.8749C37.1787 32.248 37.1108 31.5581 37.2431 30.8926C37.3754 30.2271 37.7019 29.6158 38.1813 29.136C38.6608 28.6562 39.2716 28.3294 39.9366 28.197C40.6017 28.0646 41.291 28.1326 41.9174 28.3923C42.5438 28.6519 43.0792 29.0917 43.4559 29.6559C43.8326 30.2201 44.0337 30.8834 44.0337 31.5619C44.0337 32.4719 43.6725 33.3445 43.0296 33.9879C42.3867 34.6313 41.5147 34.9928 40.6055 34.9928V34.9928Z" fill="#8D97A0"/>
</g>
</g>
</g>
<defs>
<filter id="filter0_d_14_1962" x="159.143" y="444.095" width="89.6819" height="55.939" filterUnits="userSpaceOnUse" color-interpolation-filters="sRGB">
<feFlood flood-opacity="0" result="BackgroundImageFix"/>
<feColorMatrix in="SourceAlpha" type="matrix" values="0 0 0 0 0 0 0 0 0 0 0 0 0 0 0 0 0 0 127 0" result="hardAlpha"/>
<feOffset/>
<feGaussianBlur stdDeviation="4"/>
<feComposite in2="hardAlpha" operator="out"/>
<feColorMatrix type="matrix" values="0 0 0 0 0 0 0 0 0 0 0 0 0 0 0 0 0 0 0.25 0"/>
<feBlend mode="normal" in2="BackgroundImageFix" result="effect1_dropShadow_14_1962"/>
<feBlend mode="normal" in="SourceGraphic" in2="effect1_dropShadow_14_1962" result="shape"/>
</filter>
<filter id="filter1_d_14_1962" x="29.7019" y="443.516" width="99.3022" height="53.9124" filterUnits="userSpaceOnUse" color-interpolation-filters="sRGB">
<feFlood flood-opacity="0" result="BackgroundImageFix"/>
<feColorMatrix in="SourceAlpha" type="matrix" values="0 0 0 0 0 0 0 0 0 0 0 0 0 0 0 0 0 0 127 0" result="hardAlpha"/>
<feOffset/>
<feGaussianBlur stdDeviation="4"/>
<feComposite in2="hardAlpha" operator="out"/>
<feColorMatrix type="matrix" values="0 0 0 0 0 0 0 0 0 0 0 0 0 0 0 0 0 0 0.25 0"/>
<feBlend mode="normal" in2="BackgroundImageFix" result="effect1_dropShadow_14_1962"/>
<feBlend mode="normal" in="SourceGraphic" in2="effect1_dropShadow_14_1962" result="shape"/>
</filter>
</defs>
</svg>
