<svg width="295" height="579" viewBox="0 0 295 579" fill="none" xmlns="http://www.w3.org/2000/svg">
<g id="top">
<g id="tab-navigation">
<g id="navigation">
<g id="revolut">
<path id="Vector" fill-rule="evenodd" clip-rule="evenodd" d="M34.5136 553.541C34.3275 554.851 34.1786 555.955 33.9105 557.673C34.6349 557.657 36.2791 557.945 36.641 555.597C36.9406 553.644 35.6052 553.463 34.5136 553.541V553.541Z" fill="#0D59EC"/>
<path id="Vector_2" fill-rule="evenodd" clip-rule="evenodd" d="M40.7879 562.987C41.0698 563.614 40.7859 564.407 40.1979 564.727C39.8602 564.91 39.4748 565.081 39.09 565.176C38.4546 565.328 37.8051 565.413 37.1521 565.428C36.1078 565.428 35.0608 564.83 34.6098 564.103C34.4931 564.354 34.0722 564.859 33.3347 565.096C32.8686 565.247 32.3068 565.428 31.134 565.427C30.0831 565.426 29.4839 564.95 29.1673 564.55C28.6625 563.914 28.5884 563.106 28.6867 562.562L28.692 562.536C29.0886 560.546 29.6307 556.929 29.8805 555.116L29.8831 555.098C29.9513 554.596 30.0208 554.093 30.0621 553.587C30.0824 553.332 30.0962 553.075 30.0988 552.82C30.1014 552.578 30.0792 552.336 30.0811 552.095C30.0837 551.866 30.1205 551.636 30.2273 551.434C30.401 551.108 30.719 550.851 31.0553 550.739C31.4244 550.616 31.8099 550.566 32.1934 550.522C32.5855 550.475 32.9784 550.436 33.3721 550.404C33.852 550.369 34.3331 550.351 34.8143 550.35C35.6377 550.349 36.4664 550.363 37.278 550.53C38.1046 550.701 38.9398 551.027 39.5921 551.598C40.0392 551.989 40.3939 552.483 40.6607 553.023C40.8941 553.499 40.9891 554 41.0455 554.383C41.1458 555.07 41.1194 555.769 40.9675 556.447C40.8475 556.941 40.6452 557.411 40.369 557.838C40.0582 558.321 39.6596 558.758 39.1516 559.175C39.461 560.074 40.2674 561.828 40.7879 562.987ZM31.5404 552.186C31.5601 552.519 31.5627 552.854 31.5483 553.189C31.5339 553.53 31.5044 553.871 31.4663 554.21C31.429 554.548 31.3837 554.885 31.3379 555.222L31.3228 555.332C31.1785 556.386 31.0265 557.438 30.8672 558.488C30.6993 559.592 30.5112 560.69 30.323 561.79C30.2358 562.302 30.0398 562.959 30.308 563.448C30.5466 563.885 31.1589 563.938 31.5857 563.894C33.14 563.736 33.3872 563.39 33.3872 563.39C33.0771 563.047 33.3465 561.481 33.6586 559.377H34.7632L35.9196 562.874C35.9196 562.874 36.2605 563.958 37.2078 563.905C38.4213 563.838 39.3142 563.561 39.4426 563.407C39.069 563.199 38.0004 560.527 37.4183 558.564C37.7001 558.393 37.9735 558.206 38.2312 557.997C38.5832 557.71 38.9097 557.378 39.1594 556.99C39.3391 556.71 39.4761 556.403 39.5547 556.077C39.596 555.904 39.619 555.724 39.6334 555.547C39.6596 555.237 39.6498 554.922 39.6046 554.614C39.5613 554.318 39.4964 553.988 39.364 553.72C39.1181 553.22 38.77 552.784 38.2954 552.504C37.4943 552.034 36.5713 551.944 35.6712 551.895C34.695 551.84 33.7159 551.872 32.7454 551.99C32.6365 552.003 31.5358 552.1 31.5404 552.186V552.186Z" fill="#0D59EC"/>
</g>
</g>
</g>
<g id="tab-balance">
<g id="balance-details">
<g id="balance">
<g id="$1,305.44">
<path d="M46.4655 136.56H45.4884V137.772C43.4619 137.971 41.5802 139.346 41.5802 141.5C41.5802 143.888 43.3715 144.648 45.398 145.209L45.4884 145.227V149.045C44.4933 148.954 43.4981 148.52 42.9191 147.706L41.2726 149.389C42.3763 150.547 43.9143 151.017 45.4884 150.999V152.283H46.4655V150.981C48.7634 150.746 50.6089 149.407 50.6089 147.018C50.6089 144.539 48.5644 143.888 46.5379 143.345L46.4655 143.327V139.708C47.2978 139.708 48.112 140.088 48.6729 140.685L50.1747 139.003C49.2519 138.188 47.8587 137.754 46.6283 137.754H46.4655V136.56ZM45.4884 143.056C44.6199 142.676 43.86 142.495 43.86 141.391C43.86 140.468 44.638 139.889 45.4884 139.745V143.056ZM46.4655 145.516C47.3159 145.806 48.3291 146.114 48.3291 147.181C48.3291 148.249 47.4606 148.846 46.4655 149.045V145.516Z" fill="black"/>
<path d="M56.2686 150.782H58.4398V137.971H56.4676L52.5956 141.192L53.8621 142.694L56.2686 140.468V150.782Z" fill="black"/>
<path d="M62.8149 153.062H64.7509L66.2888 148.285H64.0814L62.8149 153.062Z" fill="black"/>
<path d="M71.498 145.082H72.0227C73.3436 145.082 74.8634 145.372 74.8634 147.036C74.8634 148.231 73.8683 149.045 72.7103 149.045C71.5523 149.045 70.9009 148.43 70.6295 147.38L68.3135 147.995C68.8744 150.13 70.6114 150.999 72.7103 150.999C74.9901 150.999 77.0347 149.66 77.0347 147.217C77.0347 145.643 76.1662 144.34 74.5377 144.105V144.069C75.8948 143.725 76.7271 142.549 76.7271 141.174C76.7271 138.912 74.8272 137.754 72.6198 137.754C70.7381 137.754 69.0734 138.605 68.5125 140.504L70.8104 141.12C71.118 140.233 71.8599 139.708 72.7284 139.708C73.7959 139.708 74.5558 140.414 74.5558 141.391C74.5558 142.947 73.3074 143.128 72.0589 143.128H71.498V145.082Z" fill="black"/>
<path d="M78.9128 144.377C78.9128 150.438 82.1153 150.999 83.5447 150.999C84.9741 150.999 88.1767 150.438 88.1767 144.377C88.1767 138.315 84.9741 137.754 83.5447 137.754C82.1153 137.754 78.9128 138.315 78.9128 144.377ZM81.084 144.377C81.084 142.784 81.3735 139.817 83.5447 139.817C85.716 139.817 86.0055 142.784 86.0055 144.377C86.0055 145.969 85.716 148.936 83.5447 148.936C81.3735 148.936 81.084 145.969 81.084 144.377Z" fill="black"/>
<path d="M98.0341 137.971H90.7424L90.6157 144.883C91.3756 144.503 92.3527 144.268 93.2936 144.268C94.8858 144.268 96.2971 144.956 96.2971 146.747C96.2971 147.995 95.3744 148.936 94.0716 148.936C92.9679 148.936 92.2622 148.375 91.9727 147.452L89.6929 148.068C90.29 150.04 91.8099 150.999 93.8364 150.999C96.46 150.999 98.4684 149.316 98.4684 146.566C98.4684 143.978 96.7133 142.314 94.1983 142.314C93.7459 142.314 93.1669 142.368 92.8231 142.477L92.8774 139.925H98.0341V137.971Z" fill="black"/>
<path d="M100.835 149.515C100.835 150.293 101.523 150.89 102.282 150.89C103.079 150.89 103.73 150.257 103.73 149.479C103.73 148.701 103.061 148.104 102.282 148.104C101.486 148.104 100.835 148.737 100.835 149.515Z" fill="black"/>
<path d="M109.252 150.782H110.79V148.936H112.11V147.552H110.79V141.708H109.047L105.394 147.411V148.936H109.252V150.782ZM109.252 147.552H106.958L109.226 143.887H109.252V147.552Z" fill="black"/>
<path d="M116.837 150.782H118.375V148.936H119.695V147.552H118.375V141.708H116.632L112.979 147.411V148.936H116.837V150.782ZM116.837 147.552H114.543L116.811 143.887H116.837V147.552Z" fill="black"/>
</g>
<path id="Vector_3" d="M140.749 146.469C140.601 146.334 140.402 146.259 140.194 146.259C139.986 146.259 139.787 146.334 139.639 146.469L136.815 149.033L134.03 146.469C133.883 146.334 133.684 146.259 133.476 146.259C133.268 146.259 133.069 146.334 132.921 146.469C132.847 146.536 132.789 146.617 132.749 146.705C132.709 146.793 132.688 146.888 132.688 146.983C132.688 147.079 132.709 147.174 132.749 147.262C132.789 147.35 132.847 147.43 132.921 147.497L136.257 150.568C136.33 150.636 136.417 150.69 136.513 150.726C136.609 150.763 136.711 150.782 136.815 150.782C136.919 150.782 137.022 150.763 137.118 150.726C137.214 150.69 137.301 150.636 137.374 150.568L140.749 147.497C140.822 147.43 140.881 147.35 140.921 147.262C140.961 147.174 140.981 147.079 140.981 146.983C140.981 146.888 140.961 146.793 140.921 146.705C140.881 146.617 140.822 146.536 140.749 146.469Z" fill="black"/>
</g>
</g>
</g>
</g>
</svg>
